<svg width="35" height="35" viewBox="0 0 35 35" fill="none" xmlns="http://www.w3.org/2000/svg">
<g clip-path="url(#clip0_1_28)">
<path d="M34.0372 17.3503C34.0372 8.29309 26.6989 0.954773 17.6417 0.954773C8.58448 0.954773 1.24615 8.29309 1.24615 17.3503C1.24615 25.5335 7.24176 32.3165 15.0799 33.5475V22.0898H10.9149V17.3503H15.0799V13.738C15.0799 9.6292 17.526 7.35961 21.2725 7.35961C23.0668 7.35961 24.943 7.67958 24.943 7.67958V11.7124H22.875C20.8388 11.7124 20.2035 12.9764 20.2035 14.2728V17.3503H24.7506L24.0234 22.0898H20.2035V33.5475C28.0416 32.3165 34.0372 25.5335 34.0372 17.3503Z" fill="#DEDEDE"/>
</g>
<defs>
<clipPath id="clip0_1_28">
<rect width="33.8488" height="33.8488" fill="white" transform="translate(0.717407 0.425903)"/>
</clipPath>
</defs>
</svg>
