<svg width="34" height="35" viewBox="0 0 34 35" fill="none" xmlns="http://www.w3.org/2000/svg">
<g clip-path="url(#clip0_1_30)">
<path d="M11.8434 26.6984C11.8434 26.8306 11.6913 26.9364 11.4996 26.9364C11.2814 26.9562 11.1294 26.8505 11.1294 26.6984C11.1294 26.5662 11.2814 26.4604 11.4731 26.4604C11.6715 26.4406 11.8434 26.5463 11.8434 26.6984ZM9.78731 26.4009C9.74104 26.5331 9.87326 26.6852 10.0716 26.7248C10.2435 26.791 10.4418 26.7248 10.4815 26.5926C10.5211 26.4604 10.3955 26.3083 10.1972 26.2488C10.0253 26.2026 9.83359 26.2687 9.78731 26.4009ZM12.7094 26.2885C12.5177 26.3348 12.3855 26.4604 12.4053 26.6125C12.4251 26.7447 12.597 26.8306 12.7954 26.7843C12.9871 26.7381 13.1193 26.6125 13.0995 26.4802C13.0796 26.3546 12.9011 26.2687 12.7094 26.2885ZM17.0595 0.954773C7.88993 0.954773 0.875549 7.91626 0.875549 17.0859C0.875549 24.4176 5.4901 30.6915 12.0814 32.8996C12.9276 33.0517 13.2251 32.5294 13.2251 32.0997C13.2251 31.6898 13.2053 29.4288 13.2053 28.0405C13.2053 28.0405 8.57748 29.0321 7.60565 26.0703C7.60565 26.0703 6.85198 24.1465 5.76776 23.6507C5.76776 23.6507 4.25382 22.6127 5.87354 22.6326C5.87354 22.6326 7.51971 22.7648 8.42543 24.3382C9.87326 26.8901 12.2995 26.1563 13.2449 25.72C13.397 24.6622 13.8267 23.9283 14.3027 23.492C10.6071 23.0821 6.87843 22.5466 6.87843 16.1867C6.87843 14.3687 7.38087 13.4564 8.43865 12.2928C8.26676 11.8631 7.70482 10.0913 8.61054 7.80387C9.99226 7.37415 13.1722 9.58887 13.1722 9.58887C14.4944 9.21865 15.9158 9.02693 17.324 9.02693C18.7321 9.02693 20.1535 9.21865 21.4757 9.58887C21.4757 9.58887 24.6557 7.36754 26.0374 7.80387C26.9431 10.0979 26.3812 11.8631 26.2093 12.2928C27.2671 13.463 27.915 14.3753 27.915 16.1867C27.915 22.5665 24.021 23.0755 20.3254 23.492C20.9336 24.0143 21.4493 25.006 21.4493 26.5596C21.4493 28.7875 21.4295 31.5443 21.4295 32.0864C21.4295 32.5162 21.7336 33.0384 22.5732 32.8864C29.1843 30.6915 33.6666 24.4176 33.6666 17.0859C33.6666 7.91626 26.2291 0.954773 17.0595 0.954773ZM7.30154 23.7565C7.21559 23.8226 7.23543 23.9746 7.34782 24.1002C7.45359 24.206 7.60565 24.2523 7.69159 24.1663C7.77754 24.1002 7.75771 23.9482 7.64532 23.8226C7.53954 23.7168 7.38748 23.6705 7.30154 23.7565ZM6.58754 23.221C6.54126 23.3069 6.60737 23.4127 6.7396 23.4788C6.84537 23.5449 6.9776 23.5251 7.02387 23.4325C7.07015 23.3466 7.00404 23.2408 6.87182 23.1747C6.7396 23.135 6.63382 23.1548 6.58754 23.221ZM8.72954 25.5745C8.62376 25.6605 8.66343 25.8588 8.81548 25.9844C8.96754 26.1365 9.15926 26.1563 9.2452 26.0505C9.33115 25.9646 9.29148 25.7662 9.15926 25.6406C9.01381 25.4886 8.81548 25.4687 8.72954 25.5745ZM7.97587 24.6027C7.87009 24.6688 7.87009 24.8407 7.97587 24.9927C8.08165 25.1448 8.26015 25.2109 8.34609 25.1448C8.45187 25.0588 8.45187 24.887 8.34609 24.7349C8.25354 24.5828 8.08165 24.5167 7.97587 24.6027Z" fill="#DEDEDE"/>
</g>
<defs>
<clipPath id="clip0_1_30">
<rect width="32.7911" height="33.8488" fill="white" transform="translate(0.875732 0.425903)"/>
</clipPath>
</defs>
</svg>
