<svg width="246" height="269" viewBox="0 0 246 269" fill="none" xmlns="http://www.w3.org/2000/svg">
<g clip-path="url(#clip0_1_48)">
<path fill-rule="evenodd" clip-rule="evenodd" d="M165.685 67.625C154.814 67.625 146 76.4392 146 87.3137C146 96.0116 151.64 103.39 159.464 105.995C160.449 106.175 160.808 105.567 160.808 105.044C160.808 104.578 160.791 103.34 160.781 101.697C155.305 102.887 154.15 99.0575 154.15 99.0575C153.254 96.7841 151.963 96.1787 151.963 96.1787C150.176 94.9564 152.098 94.981 152.098 94.981C154.074 95.1211 155.114 97.0102 155.114 97.0102C156.87 100.018 159.722 99.1492 160.844 98.6462C161.023 97.374 161.53 96.5064 162.094 96.014C157.722 95.5176 153.126 93.8275 153.126 86.2839C153.126 84.1351 153.893 82.377 155.153 81.0007C154.95 80.5026 154.274 78.5012 155.345 75.7903C155.345 75.7903 156.998 75.2611 160.759 77.8089C162.33 77.3723 164.014 77.1535 165.688 77.1462C167.36 77.1535 169.044 77.3723 170.617 77.8089C174.376 75.2611 176.026 75.7903 176.026 75.7903C177.1 78.5012 176.424 80.5026 176.222 81.0007C177.483 82.377 178.246 84.1351 178.246 86.2839C178.246 93.8471 173.642 95.511 169.256 95.9985C169.964 96.6063 170.593 97.8073 170.593 99.6449C170.593 102.276 170.569 104.4 170.569 105.044C170.569 105.572 170.923 106.185 171.922 105.992C179.739 103.383 185.375 96.0091 185.375 87.3137C185.375 76.4392 176.56 67.625 165.685 67.625Z" fill="#DEDEDE"/>
</g>
<path d="M21.7627 229L24.9614 264.951L39.312 269L53.7614 264.951L56.9627 229H21.7627ZM50.012 240.727H33.1627L33.5374 245.251H49.636L48.3867 258.852L39.4134 261.325V261.352H39.3134L30.264 258.852L29.7134 251.901H34.088L34.4134 255.401L39.3134 256.727L44.236 255.401L44.788 249.701H29.488L28.312 236.352H50.4134L50.012 240.727Z" fill="#DEDEDE"/>
<g clip-path="url(#clip1_1_48)">
<path d="M206.44 121.44H245.56V160.56H206.44V121.44Z" fill="#DEDEDE"/>
<path d="M242.358 151.23C242.072 149.445 240.908 147.946 237.461 146.548C236.263 145.998 234.928 145.604 234.531 144.697C234.389 144.168 234.371 143.871 234.46 143.551C234.717 142.514 235.955 142.19 236.937 142.488C237.569 142.7 238.167 143.187 238.528 143.964C240.216 142.871 240.213 142.878 241.392 142.127C240.96 141.458 240.73 141.149 240.447 140.863C239.432 139.729 238.048 139.145 235.836 139.189L234.683 139.338C233.579 139.618 232.527 140.197 231.909 140.974C230.057 143.076 230.586 146.753 232.839 148.267C235.059 149.933 238.32 150.312 238.737 151.87C239.142 153.778 237.335 154.395 235.539 154.176C234.215 153.9 233.479 153.228 232.683 152.004C231.218 152.852 231.218 152.852 229.712 153.718C230.069 154.499 230.444 154.853 231.043 155.529C233.877 158.403 240.968 158.262 242.24 153.912C242.291 153.762 242.634 152.766 242.358 151.23ZM227.707 139.42H224.048L224.033 148.88C224.033 150.892 224.137 152.736 223.81 153.301C223.274 154.413 221.887 154.275 221.255 154.06C220.612 153.743 220.284 153.294 219.905 152.658C219.801 152.476 219.723 152.334 219.697 152.323L216.722 154.145C217.217 155.161 217.945 156.042 218.879 156.614C220.273 157.451 222.147 157.708 224.107 157.258C225.383 156.886 226.483 156.117 227.06 154.945C227.893 153.409 227.714 151.55 227.707 149.494C227.725 146.139 227.707 142.785 227.707 139.42Z" fill="#1D1D1D"/>
</g>
<path d="M217 23.5625C218.968 23.5625 220.563 21.9675 220.563 20C220.563 18.0325 218.968 16.4375 217 16.4375C215.032 16.4375 213.438 18.0325 213.438 20C213.438 21.9675 215.032 23.5625 217 23.5625Z" fill="#DEDEDE"/>
<path d="M230.531 14.125C229.844 13.875 229.125 13.625 228.375 13.4063C228.562 12.6563 228.719 11.9062 228.844 11.1875C229.5 7.0625 228.781 4.15625 226.781 3.03125C226.188 2.6875 225.531 2.53125 224.781 2.53125C222.594 2.53125 219.812 4.15625 217 6.875C214.188 4.15625 211.406 2.53125 209.219 2.53125C208.469 2.53125 207.812 2.6875 207.219 3.03125C205.219 4.1875 204.5 7.09375 205.156 11.1875C205.281 11.9062 205.438 12.6563 205.625 13.4063C204.875 13.625 204.156 13.8438 203.469 14.125C199.563 15.625 197.438 17.6875 197.438 20C197.438 22.3125 199.594 24.375 203.469 25.875C204.156 26.125 204.875 26.375 205.625 26.5938C205.438 27.3438 205.281 28.0938 205.156 28.8125C204.5 32.9375 205.219 35.8438 207.219 36.9688C207.812 37.3125 208.469 37.4688 209.219 37.4688C211.437 37.4688 214.219 35.8438 217 33.125C219.812 35.8438 222.594 37.4688 224.781 37.4688C225.531 37.4688 226.188 37.3125 226.781 36.9688C228.781 35.8125 229.5 32.9062 228.844 28.8125C228.719 28.0938 228.562 27.3438 228.375 26.5938C229.125 26.375 229.844 26.1563 230.531 25.875C234.438 24.375 236.562 22.3125 236.562 20C236.562 17.6875 234.438 15.625 230.531 14.125ZM225.906 4.59375C227.188 5.34375 227.625 7.65625 227.094 10.9375C227 11.5938 226.844 12.2812 226.656 13C225.031 12.625 223.312 12.375 221.5 12.2187C220.438 10.7187 219.344 9.375 218.25 8.15625C220.562 5.875 222.906 4.3125 224.812 4.3125C225.219 4.3125 225.594 4.40625 225.906 4.59375ZM222.406 23.125C221.844 24.125 221.187 25.125 220.5 26.125C219.344 26.2188 218.188 26.25 217 26.25C215.781 26.25 214.625 26.2188 213.5 26.125C212.812 25.125 212.187 24.125 211.625 23.125C211.031 22.0938 210.469 21.0312 209.969 20C210.469 18.9688 211.031 17.9062 211.625 16.875C212.187 15.875 212.844 14.875 213.531 13.875C214.688 13.7813 215.844 13.75 217.031 13.75C218.25 13.75 219.406 13.7813 220.531 13.875C221.219 14.875 221.844 15.875 222.406 16.875C223 17.9062 223.562 18.9688 224.062 20C223.531 21.0312 223 22.0625 222.406 23.125ZM225 22.0938C225.469 23.1875 225.844 24.25 226.188 25.3125C225.125 25.5625 224 25.75 222.812 25.9062C223.188 25.3125 223.594 24.6875 223.937 24.0312C224.312 23.375 224.656 22.7188 225 22.0938ZM217 30.5625C216.25 29.75 215.531 28.875 214.844 27.9688C215.562 28 216.281 28.0312 217 28.0312C217.719 28.0312 218.438 28 219.156 27.9688C218.469 28.875 217.75 29.75 217 30.5625ZM211.188 25.875C210 25.7188 208.875 25.5313 207.812 25.2812C208.156 24.25 208.531 23.1562 209 22.0625C209.344 22.6875 209.687 23.3438 210.062 23.9688C210.437 24.6562 210.812 25.25 211.188 25.875ZM209 17.9062C208.531 16.8125 208.156 15.75 207.812 14.6875C208.875 14.4375 210 14.25 211.188 14.0938C210.812 14.6875 210.406 15.3125 210.062 15.9688C209.687 16.625 209.344 17.2812 209 17.9062ZM217 9.4375C217.75 10.25 218.469 11.125 219.156 12.0312C218.438 12 217.719 11.9688 217 11.9688C216.281 11.9688 215.562 12 214.844 12.0312C215.531 11.125 216.25 10.25 217 9.4375ZM223.937 16L222.812 14.125C224 14.2812 225.125 14.4688 226.188 14.7188C225.844 15.75 225.469 16.8438 225 17.9375C224.656 17.2813 224.312 16.625 223.937 16ZM206.906 10.9375C206.375 7.65625 206.812 5.34375 208.094 4.59375C208.406 4.40625 208.781 4.3125 209.188 4.3125C211.062 4.3125 213.406 5.84375 215.75 8.15625C214.656 9.34375 213.562 10.7187 212.5 12.2187C210.687 12.375 208.969 12.6562 207.344 13C207.156 12.2812 207.031 11.5938 206.906 10.9375ZM199.188 20C199.188 18.5312 200.969 16.9688 204.094 15.8125C204.719 15.5625 205.406 15.3438 206.094 15.1562C206.594 16.7188 207.219 18.375 207.969 20.0312C207.219 21.6875 206.562 23.3125 206.094 24.875C201.781 23.625 199.188 21.75 199.188 20ZM208.094 35.4062C206.812 34.6562 206.375 32.3438 206.906 29.0625C207 28.4062 207.156 27.7188 207.344 27C208.969 27.375 210.687 27.625 212.5 27.7812C213.562 29.2813 214.656 30.625 215.75 31.8438C213.437 34.125 211.094 35.6875 209.188 35.6875C208.781 35.6875 208.406 35.5938 208.094 35.4062ZM227.094 29.0625C227.625 32.3438 227.188 34.6562 225.906 35.4062C225.594 35.5938 225.219 35.6875 224.812 35.6875C222.938 35.6875 220.594 34.1563 218.25 31.8438C219.344 30.6563 220.438 29.2813 221.5 27.7812C223.312 27.625 225.031 27.3438 226.656 27C226.844 27.7188 226.969 28.4062 227.094 29.0625ZM229.906 24.1875C229.281 24.4375 228.594 24.6562 227.906 24.8438C227.406 23.2812 226.781 21.625 226.031 19.9688C226.781 18.3125 227.438 16.6875 227.906 15.125C232.219 16.375 234.812 18.25 234.812 20C234.812 21.4688 233 23.0312 229.906 24.1875Z" fill="#DEDEDE"/>
<g clip-path="url(#clip2_1_48)">
<path d="M166 193H206L202.362 228.939L185.958 233L169.643 228.936L166 193ZM198.553 200.354L173.449 200.35L173.854 204.718L193.14 204.723L192.656 209.25H180.007L180.465 213.538H192.241L191.545 219.41L186.001 220.751L180.373 219.399L180.012 215.882H175.042L175.596 222.309L186.001 225.144L196.235 222.595L198.553 200.354Z" fill="#DEDEDE"/>
</g>
<path d="M57.5 67V84.5H75H92.5V67V49.5H75H57.5V67Z" fill="#DEDEDE"/>
<path d="M85.705 65.605C86.5431 65.8 87.3047 66.2389 87.8937 66.8662C88.2181 67.2057 88.4998 67.5835 88.7325 67.9912C88.7437 68.0362 87.2212 69.0575 86.2987 69.63C86.265 69.6525 86.1325 69.505 85.9825 69.285C85.8143 68.9945 85.5752 68.7514 85.2875 68.5784C84.9998 68.4055 84.6729 68.3084 84.3375 68.2962C83.2762 68.2237 82.5875 68.78 82.5987 69.7075C82.5897 69.9353 82.6415 70.1613 82.7487 70.3625C82.9825 70.8462 83.415 71.135 84.7762 71.7237C87.2762 72.8012 88.3537 73.5125 89.0262 74.5237C89.4006 75.1624 89.6308 75.8751 89.7007 76.6121C89.7707 77.349 89.6787 78.0923 89.4312 78.79C89.0918 79.5561 88.5534 80.2173 87.8719 80.7048C87.1905 81.1924 86.3909 81.4885 85.5562 81.5625C84.6698 81.6642 83.7741 81.655 82.89 81.535C81.5353 81.3126 80.2874 80.6626 79.3287 79.68C78.9668 79.2721 78.6604 78.8182 78.4175 78.33C78.5198 78.2539 78.6276 78.1854 78.74 78.125C78.895 78.0362 79.49 77.6975 80.04 77.375L81.04 76.7912L81.25 77.1C81.6059 77.609 82.0592 78.0423 82.5837 78.375C83.1116 78.6644 83.7094 78.8015 84.3107 78.7711C84.9119 78.7406 85.4928 78.5438 85.9887 78.2025C86.243 77.9532 86.4017 77.6227 86.4374 77.2684C86.473 76.9142 86.3832 76.5586 86.1837 76.2637C85.9112 75.875 85.3562 75.5475 83.7787 74.8637C82.5416 74.445 81.4152 73.7518 80.4837 72.8362C80.0395 72.33 79.7114 71.7327 79.5225 71.0862C79.3827 70.3497 79.362 69.5956 79.4612 68.8525C79.6466 67.9976 80.0903 67.2203 80.7323 66.626C81.3742 66.0317 82.1833 65.649 83.05 65.53C83.9337 65.4215 84.8288 65.4468 85.705 65.605ZM77.4887 67.0662L77.5 68.5H72.945V81.445H69.7225V68.5H65.1662V67.095C65.1538 66.613 65.1668 66.1306 65.205 65.65C65.2212 65.6275 67.9937 65.6162 71.355 65.6225L77.4712 65.6387L77.4887 67.0662Z" fill="#1D1D1D"/>
<path d="M95.7109 213.313C95.5469 213.313 95.3828 213.266 95.2344 213.188L93.7344 212.297C93.5078 212.172 93.6172 212.125 93.6953 212.102C93.9922 212 94.0547 211.977 94.375 211.789C94.4063 211.773 94.4531 211.781 94.4844 211.797L95.6406 212.484C95.6797 212.508 95.7422 212.508 95.7812 212.484L100.297 209.875C100.336 209.852 100.367 209.805 100.367 209.75V204.539C100.367 204.484 100.344 204.438 100.297 204.414L95.7812 201.813C95.7422 201.789 95.6875 201.789 95.6406 201.813L91.125 204.414C91.0781 204.438 91.0547 204.492 91.0547 204.539V209.75C91.0547 209.797 91.0859 209.844 91.125 209.867L92.3594 210.578C93.0312 210.914 93.4453 210.516 93.4453 210.125V204.977C93.4453 204.906 93.5 204.844 93.5781 204.844H94.1484C94.2187 204.844 94.2812 204.898 94.2812 204.977V210.125C94.2812 211.023 93.7969 211.531 92.9453 211.531C92.6875 211.531 92.4766 211.531 91.9062 211.25L90.7188 210.57C90.4297 210.398 90.2422 210.086 90.2422 209.75V204.539C90.2422 204.203 90.4219 203.883 90.7188 203.719L95.2344 201.109C95.5234 200.945 95.8984 200.945 96.1797 201.109L100.695 203.719C100.984 203.891 101.172 204.203 101.172 204.539V209.75C101.172 210.086 100.992 210.406 100.695 210.57L96.1797 213.18C96.0469 213.266 95.8828 213.313 95.7109 213.313ZM99.3594 208.172C99.3594 207.195 98.7031 206.938 97.3125 206.75C95.9062 206.563 95.7656 206.469 95.7656 206.141C95.7656 205.867 95.8828 205.508 96.9219 205.508C97.8516 205.508 98.1953 205.711 98.3359 206.336C98.3516 206.398 98.3984 206.438 98.4609 206.438H99.0469C99.0859 206.438 99.1172 206.422 99.1406 206.398C99.1641 206.367 99.1797 206.336 99.1719 206.297C99.0781 205.219 98.3672 204.719 96.9219 204.719C95.6328 204.719 94.8672 205.266 94.8672 206.172C94.8672 207.164 95.6328 207.43 96.8672 207.555C98.3438 207.703 98.4609 207.914 98.4609 208.203C98.4609 208.711 98.0547 208.922 97.1016 208.922C95.9062 208.922 95.6406 208.625 95.5547 208.031C95.5469 207.969 95.4922 207.922 95.4219 207.922H94.8359C94.7656 207.922 94.7031 207.977 94.7031 208.055C94.7031 208.813 95.1172 209.719 97.0938 209.719C98.5391 209.719 99.3594 209.156 99.3594 208.172ZM103.617 204.258C103.617 204.734 103.227 205.125 102.75 205.125C102.273 205.125 101.883 204.734 101.883 204.258C101.883 203.766 102.289 203.391 102.75 203.391C103.219 203.383 103.617 203.766 103.617 204.258ZM103.477 204.258C103.477 203.852 103.148 203.531 102.742 203.531C102.344 203.531 102.016 203.852 102.016 204.258C102.016 204.664 102.344 204.992 102.742 204.992C103.148 204.984 103.477 204.656 103.477 204.258ZM103.125 204.742H102.922C102.914 204.695 102.883 204.445 102.883 204.438C102.867 204.383 102.852 204.352 102.781 204.352H102.609V204.742H102.422V203.766H102.758C102.875 203.766 103.102 203.766 103.102 204.023C103.102 204.203 102.984 204.242 102.914 204.266C103.047 204.273 103.055 204.359 103.078 204.484C103.086 204.563 103.102 204.695 103.125 204.742ZM102.906 204.055C102.906 203.922 102.812 203.922 102.766 203.922H102.609V204.195H102.758C102.883 204.195 102.906 204.109 102.906 204.055ZM81.7266 192.922C81.7266 192.711 81.6172 192.523 81.4375 192.422L76.6484 189.664C76.5703 189.617 76.4766 189.594 76.3828 189.586H76.3359C76.2422 189.586 76.1562 189.617 76.0703 189.664L71.2891 192.422C71.1094 192.523 71 192.719 71 192.922L71.0078 200.344C71.0078 200.445 71.0625 200.539 71.1484 200.594C71.2344 200.648 71.3438 200.648 71.4375 200.594L74.2812 198.961C74.4609 198.852 74.5703 198.664 74.5703 198.461V194.992C74.5703 194.789 74.6797 194.594 74.8594 194.492L76.0703 193.797C76.1641 193.742 76.2578 193.719 76.3594 193.719C76.4609 193.719 76.5625 193.742 76.6484 193.797L77.8594 194.492C78.0391 194.594 78.1484 194.789 78.1484 194.992V198.461C78.1484 198.664 78.2578 198.859 78.4375 198.961L81.2812 200.594C81.3672 200.648 81.4844 200.648 81.5703 200.594C81.6562 200.547 81.7109 200.445 81.7109 200.344L81.7266 192.922ZM107.914 184.82V198.602C107.914 198.805 107.805 199 107.625 199.102L102.836 201.867C102.656 201.969 102.438 201.969 102.258 201.867L97.4688 199.102C97.2891 199 97.1797 198.805 97.1797 198.602V193.07C97.1797 192.867 97.2891 192.672 97.4688 192.57L102.258 189.805C102.438 189.703 102.656 189.703 102.836 189.805L104.031 190.492C104.164 190.57 104.336 190.469 104.336 190.32V182.977C104.336 182.758 104.57 182.617 104.766 182.727L107.617 184.32C107.797 184.414 107.914 184.609 107.914 184.82ZM104.32 194.891C104.32 194.836 104.289 194.789 104.25 194.766L102.609 193.813C102.562 193.789 102.508 193.789 102.461 193.813L100.82 194.766C100.773 194.789 100.75 194.836 100.75 194.891V196.789C100.75 196.844 100.781 196.891 100.82 196.914L102.461 197.859C102.508 197.883 102.562 197.883 102.602 197.859L104.242 196.914C104.289 196.891 104.312 196.844 104.312 196.789V194.891H104.32ZM120.711 194.836C120.891 194.734 121 194.539 121 194.336V193C121 192.797 120.891 192.602 120.711 192.5L115.953 189.734C115.773 189.633 115.555 189.633 115.375 189.734L110.586 192.5C110.406 192.602 110.297 192.797 110.297 193V198.531C110.297 198.742 110.406 198.93 110.586 199.031L115.344 201.742C115.516 201.844 115.734 201.844 115.914 201.742L118.789 200.141C118.984 200.031 118.984 199.75 118.789 199.641L113.969 196.875C113.875 196.82 113.82 196.727 113.82 196.625V194.891C113.82 194.789 113.875 194.695 113.969 194.641L115.469 193.773C115.555 193.719 115.672 193.719 115.758 193.773L117.258 194.641C117.344 194.695 117.406 194.789 117.406 194.891V196.25C117.406 196.469 117.648 196.609 117.844 196.5L120.711 194.836ZM114.672 195.109C114.641 195.133 114.617 195.164 114.617 195.203V196.266C114.617 196.305 114.641 196.344 114.672 196.359L115.594 196.891C115.625 196.914 115.672 196.914 115.703 196.891L116.625 196.359C116.656 196.336 116.68 196.305 116.68 196.266V195.203C116.68 195.164 116.656 195.125 116.625 195.109L115.703 194.578C115.672 194.555 115.625 194.555 115.594 194.578L114.672 195.109ZM94.8125 198.508V193.008C94.8125 192.805 94.6875 192.609 94.5078 192.508L89.7344 189.758C89.5703 189.664 89.3438 189.648 89.1562 189.758L84.3828 192.508C84.2031 192.609 84.0781 192.797 84.0781 193.008V198.508C84.0781 198.727 84.2266 198.914 84.3906 199.008L89.1719 201.758C89.3594 201.867 89.5781 201.859 89.75 201.758L94.5156 199.008C94.6562 198.93 94.7578 198.797 94.7969 198.641C94.8047 198.602 94.8125 198.555 94.8125 198.508ZM89.0078 188.75L88.9453 188.789H89.0312L89.0078 188.75ZM94.9609 198.922L94.9297 198.867V198.938L94.9609 198.922Z" fill="#DEDEDE"/>
<path d="M108.344 119.46C108.149 119.46 108.019 119.486 107.887 119.519V119.539H107.907C107.999 119.707 108.149 119.839 108.265 119.995C108.356 120.171 108.434 120.352 108.519 120.529L108.545 120.502C108.701 120.391 108.78 120.216 108.78 119.949C108.715 119.87 108.701 119.786 108.644 119.714C108.579 119.602 108.435 119.545 108.344 119.46ZM90.6162 141.451H89.0737C89.0212 138.847 88.865 136.399 88.625 134.101H88.6125L86.2625 141.451H85.0837L82.7525 134.101H82.7325C82.5637 136.301 82.4525 138.756 82.4075 141.451H81.0012C81.0925 138.17 81.32 135.097 81.685 132.232H83.5987L85.825 139.004H85.8375L88.0837 132.232H89.9062C90.31 135.592 90.5512 138.665 90.6225 141.451H90.6162ZM97.3087 134.649C96.6837 138.06 95.85 140.541 94.8287 142.084C94.0212 143.275 93.1425 143.874 92.185 143.874C91.9312 143.874 91.6187 143.795 91.2412 143.639V142.819C91.43 142.845 91.645 142.864 91.8862 142.864C92.335 142.864 92.6937 142.734 92.9675 142.492C93.2925 142.192 93.4562 141.855 93.4562 141.484C93.4562 141.224 93.3325 140.702 93.0725 139.909L91.3862 134.649H92.9037L94.115 138.581C94.3887 139.48 94.5062 140.099 94.4537 140.456C95.1237 138.685 95.5862 136.745 95.8475 134.649H97.3087ZM117.855 141.451H113.467V132.232H114.945V140.319H117.855V141.451ZM112.321 141.674L110.629 140.84C110.779 140.716 110.921 140.58 111.052 140.424C111.775 139.584 112.134 138.327 112.134 136.674C112.134 133.62 110.936 132.097 108.54 132.097C107.367 132.097 106.45 132.481 105.792 133.256C105.076 134.102 104.711 135.352 104.711 137C104.711 138.621 105.03 139.806 105.669 140.567C106.255 141.245 107.134 141.59 108.312 141.59C108.749 141.59 109.152 141.537 109.517 141.427L111.725 142.716L112.33 141.675L112.321 141.674ZM106.834 139.602C106.456 139.004 106.274 138.04 106.274 136.711C106.274 134.387 106.977 133.229 108.39 133.229C109.126 133.229 109.672 133.509 110.017 134.062C110.389 134.667 110.577 135.619 110.577 136.934C110.577 139.271 109.867 140.45 108.461 140.45C107.719 140.45 107.179 140.17 106.827 139.616L106.834 139.602ZM104.072 138.9C104.072 139.681 103.786 140.326 103.206 140.82C102.634 141.321 101.871 141.575 100.901 141.575C99.9962 141.575 99.13 141.289 98.2775 140.715L98.675 139.921C99.4037 140.286 100.061 140.469 100.661 140.469C101.215 140.469 101.651 140.345 101.964 140.104C102.276 139.856 102.465 139.511 102.465 139.075C102.465 138.527 102.081 138.059 101.384 137.669C100.739 137.311 99.4437 136.575 99.4437 136.575C98.74 136.061 98.395 135.514 98.395 134.609C98.395 133.86 98.655 133.261 99.1762 132.805C99.7037 132.336 100.374 132.109 101.207 132.109C102.06 132.109 102.841 132.336 103.545 132.792L103.187 133.586C102.589 133.332 101.996 133.202 101.416 133.202C100.941 133.202 100.576 133.32 100.322 133.547C100.069 133.775 99.9125 134.061 99.9125 134.42C99.9125 134.967 100.304 135.436 101.019 135.839C101.676 136.196 102.997 136.952 102.997 136.952C103.72 137.46 104.079 138.007 104.079 138.899L104.072 138.9ZM119.705 129.141C118.812 129.121 118.122 129.212 117.544 129.46C117.381 129.525 117.114 129.525 117.087 129.734C117.179 129.825 117.191 129.969 117.27 130.091C117.406 130.312 117.635 130.612 117.85 130.769C118.085 130.951 118.319 131.134 118.56 131.29C118.996 131.557 119.485 131.714 119.914 131.98C120.155 132.136 120.402 132.337 120.642 132.501C120.766 132.586 120.844 132.736 121 132.787V132.755C120.921 132.657 120.902 132.514 120.824 132.397C120.712 132.286 120.602 132.189 120.491 132.079C120.166 131.642 119.769 131.265 119.332 130.952C118.975 130.711 118.194 130.372 118.05 129.962L118.03 129.936C118.271 129.916 118.557 129.825 118.791 129.76C119.169 129.662 119.52 129.681 119.911 129.584C120.087 129.539 120.262 129.486 120.445 129.427V129.33C120.244 129.129 120.094 128.855 119.885 128.666C119.319 128.177 118.694 127.696 118.049 127.299C117.697 127.071 117.255 126.927 116.884 126.739C116.754 126.674 116.526 126.641 116.454 126.53C116.252 126.282 116.135 125.964 115.991 125.67C115.672 125.057 115.36 124.381 115.08 123.73C114.879 123.294 114.761 122.864 114.514 122.46C113.367 120.565 112.117 119.42 110.204 118.294C109.794 118.059 109.299 117.961 108.777 117.837C108.497 117.825 108.224 117.805 107.944 117.792C107.761 117.714 107.586 117.506 107.43 117.401C106.792 116.997 105.151 116.131 104.689 117.277C104.389 118.006 105.131 118.716 105.392 119.081C105.581 119.341 105.822 119.629 105.959 119.915C106.037 120.11 106.056 120.312 106.135 120.514C106.311 121.002 106.48 121.549 106.715 122.005C106.839 122.24 106.969 122.486 107.125 122.695C107.216 122.819 107.372 122.871 107.405 123.072C107.249 123.3 107.236 123.632 107.151 123.906C106.747 125.169 106.904 126.725 107.47 127.656C107.652 127.936 108.075 128.549 108.642 128.314C109.144 128.112 109.034 127.48 109.176 126.92C109.209 126.784 109.189 126.699 109.255 126.607V126.634C109.417 126.946 109.574 127.246 109.717 127.559C110.056 128.106 110.661 128.672 111.162 129.05C111.43 129.251 111.637 129.597 111.97 129.72V129.687H111.944C111.872 129.59 111.781 129.544 111.69 129.466C111.489 129.265 111.266 129.017 111.104 128.796C110.641 128.171 110.225 127.481 109.86 126.771C109.677 126.42 109.521 126.042 109.379 125.697C109.314 125.567 109.314 125.365 109.202 125.3C109.034 125.541 108.786 125.749 108.669 126.055C108.454 126.53 108.434 127.122 108.35 127.735C108.311 127.747 108.33 127.735 108.311 127.761C107.954 127.67 107.83 127.305 107.699 126.992C107.36 126.199 107.307 124.929 107.595 124.017C107.674 123.782 108.005 123.047 107.875 122.826C107.804 122.611 107.582 122.487 107.465 122.319C107.315 122.11 107.165 121.844 107.061 121.609C106.794 120.984 106.664 120.294 106.371 119.669C106.241 119.382 106.006 119.082 105.817 118.816C105.602 118.516 105.369 118.302 105.205 117.95C105.146 117.826 105.069 117.625 105.16 117.494C105.18 117.402 105.225 117.37 105.316 117.344C105.46 117.22 105.876 117.376 106.02 117.447C106.43 117.61 106.775 117.766 107.12 118.001C107.276 118.112 107.445 118.32 107.647 118.379H107.882C108.24 118.457 108.637 118.399 108.97 118.502C109.562 118.691 110.096 118.965 110.577 119.264C112.036 120.195 113.234 121.51 114.047 123.079C114.184 123.332 114.242 123.567 114.366 123.834C114.594 124.387 114.887 124.94 115.121 125.467C115.355 125.995 115.577 126.529 115.915 126.965C116.084 127.2 116.749 127.322 117.054 127.44C117.275 127.544 117.62 127.635 117.815 127.752C118.199 127.987 118.576 128.254 118.935 128.514C119.117 128.637 119.671 128.917 119.704 129.139L119.705 129.141Z" fill="#DEDEDE"/>
<g clip-path="url(#clip3_1_48)">
<path d="M0.078125 124.078C13.4141 124.078 26.7422 124.078 40.0781 124.078C40.0781 137.414 40.0781 150.742 40.0781 164.078C26.7422 164.078 13.4141 164.078 0.078125 164.078C0.078125 150.742 0.078125 137.414 0.078125 124.078ZM20.1953 163.625C30.8281 163.695 39.4297 155.109 39.6953 144.68C39.9766 133.695 31.1641 124.805 20.4922 124.68C9.67969 124.555 1.00781 133.227 0.773438 143.695C0.523437 154.672 9.39062 163.656 20.1953 163.625Z" fill="#DEDEDE"/>
<path d="M20.1953 163.625C9.3906 163.656 0.52341 154.672 0.77341 143.695C1.00778 133.227 9.68747 124.547 20.4922 124.68C31.164 124.805 39.9765 133.695 39.7031 144.672C39.4297 155.102 30.8281 163.687 20.1953 163.625ZM29.0937 154.203C29.1484 154.203 29.1953 154.195 29.25 154.195C29.3672 153.828 29.4765 153.461 29.5937 153.094C30.2968 150.836 31.0312 148.594 31.6875 146.328C32.1328 144.781 32.2187 143.203 31.7734 141.625C31.4609 140.523 30.8984 139.547 30.3125 138.578C29.8125 137.758 29.3281 136.93 29.1718 135.953C28.9453 134.5 29.8359 133.039 31.2343 132.719C31.7578 132.602 32.3281 132.656 32.8437 132.633C30.1093 129.32 24.4922 126.164 17.875 127.133C12.3515 127.953 8.24997 130.914 5.34372 135.695C6.10153 135.695 6.77341 135.703 7.43747 135.695C8.53122 135.68 9.62497 135.664 10.7187 135.625C11.4453 135.602 12.1718 135.531 12.8984 135.5C13.2812 135.484 13.5547 135.703 13.6015 136.039C13.6484 136.398 13.4375 136.672 13.039 136.75C12.8515 136.789 12.6484 136.797 12.4609 136.82C12.039 136.867 11.6172 136.906 11.1484 136.953C13.1093 142.781 15.0547 148.555 17 154.336C17.0468 154.328 17.1015 154.328 17.1484 154.32C17.1953 154.203 17.25 154.094 17.289 153.977C18.3515 150.812 19.414 147.648 20.4765 144.484C20.6015 144.109 20.6484 143.75 20.5 143.352C19.7422 141.336 19 139.312 18.2812 137.281C18.1875 137.008 18.0547 136.93 17.7812 136.914C17.289 136.883 16.7968 136.812 16.3125 136.742C16.0312 136.703 15.8906 136.5 15.8672 136.227C15.8437 135.945 15.9375 135.695 16.2187 135.594C16.3828 135.531 16.5781 135.516 16.75 135.531C19.4297 135.75 22.1015 135.766 24.7812 135.531C25.4531 135.477 25.7578 135.656 25.7812 136.102C25.8047 136.531 25.539 136.742 24.8906 136.805C24.3906 136.852 23.8906 136.898 23.3281 136.953C25.2422 142.734 27.1718 148.469 29.0937 154.203ZM14.4375 160.312C14.414 160.195 14.4062 160.141 14.3906 160.102C13.2109 156.867 12.039 153.633 10.8593 150.406C9.32028 146.187 7.78122 141.961 6.23435 137.75C6.18747 137.625 5.99216 137.484 5.85153 137.469C5.53122 137.422 5.19528 137.484 4.87497 137.445C4.5781 137.406 4.46872 137.523 4.36716 137.781C3.49997 139.992 3.06247 142.273 3.16403 144.648C3.40622 150.375 5.88278 154.922 10.5078 158.289C11.6953 159.133 12.9843 159.797 14.4375 160.312ZM26.5781 160.117C24.8593 155.398 23.164 150.75 21.4687 146.102C21.4218 146.102 21.375 146.102 21.3281 146.109C19.6328 151.016 17.9375 155.922 16.2265 160.875C19.7734 161.695 23.2031 161.445 26.5781 160.117ZM29.1562 158.766C32.5625 156.758 36.3359 152.508 37.1484 146.531C37.6406 142.937 37.0547 139.523 35.3828 136.305C35.414 137.867 35.4922 139.437 35.1093 140.969C34.789 142.266 34.3593 143.531 33.9297 144.797C32.6328 148.609 31.3125 152.406 30.0078 156.211C29.7265 157.031 29.4609 157.859 29.1562 158.766Z" fill="#1D1D1D"/>
<path d="M29.0938 154.203C27.1719 148.469 25.2422 142.734 23.3047 136.961C23.8672 136.906 24.3672 136.859 24.8672 136.812C25.5156 136.75 25.7812 136.539 25.7578 136.109C25.7344 135.656 25.4297 135.477 24.7578 135.539C22.0781 135.766 19.4062 135.758 16.7266 135.539C16.5547 135.523 16.3594 135.547 16.1953 135.602C15.9141 135.703 15.8203 135.945 15.8438 136.234C15.8672 136.508 16.0078 136.711 16.2891 136.75C16.7812 136.82 17.2656 136.891 17.7578 136.922C18.0234 136.937 18.1563 137.023 18.2578 137.289C18.9844 139.32 19.7266 141.344 20.4766 143.359C20.625 143.758 20.5781 144.117 20.4531 144.492C19.3906 147.656 18.3281 150.82 17.2656 153.984C17.2266 154.102 17.1719 154.211 17.125 154.328C17.0781 154.336 17.0234 154.336 16.9766 154.344C15.0313 148.562 13.0859 142.789 11.125 136.961C11.5937 136.914 12.0156 136.867 12.4375 136.828C12.6328 136.805 12.8281 136.797 13.0156 136.758C13.4141 136.68 13.625 136.406 13.5781 136.047C13.5312 135.711 13.2578 135.492 12.875 135.508C12.1484 135.539 11.4219 135.609 10.6953 135.633C9.60156 135.672 8.50781 135.687 7.41406 135.703C6.74219 135.711 6.07031 135.703 5.32031 135.703C8.21875 130.914 12.3281 127.961 17.8437 127.148C24.4609 126.172 30.0781 129.336 32.8125 132.648C32.3047 132.672 31.7344 132.617 31.2031 132.734C29.8047 133.047 28.9062 134.516 29.1406 135.969C29.2969 136.945 29.7812 137.773 30.2812 138.594C30.875 139.562 31.4375 140.539 31.7422 141.641C32.1875 143.219 32.1016 144.797 31.6562 146.344C31 148.609 30.2656 150.859 29.5625 153.109C29.4453 153.477 29.3359 153.844 29.2188 154.211C29.2031 154.195 29.1484 154.195 29.0938 154.203Z" fill="#DEDEDE"/>
<path d="M14.4375 160.312C12.9922 159.797 11.6953 159.133 10.5156 158.273C5.8906 154.906 3.41403 150.359 3.17185 144.633C3.07028 142.266 3.5156 139.977 4.37497 137.766C4.47653 137.508 4.58591 137.391 4.88278 137.43C5.2031 137.469 5.53903 137.414 5.85935 137.453C5.99997 137.469 6.19528 137.609 6.24216 137.734C7.79685 141.953 9.3281 146.172 10.8672 150.391C12.0468 153.625 13.2187 156.859 14.3984 160.086C14.4062 160.141 14.4062 160.195 14.4375 160.312Z" fill="#DEDEDE"/>
<path d="M26.5781 160.117C23.2109 161.453 19.7812 161.695 16.2266 160.867C17.9375 155.922 19.6328 151.016 21.3281 146.102C21.375 146.102 21.4219 146.102 21.4687 146.094C23.1562 150.742 24.8516 155.391 26.5781 160.117Z" fill="#DEDEDE"/>
<path d="M29.1562 158.766C29.4609 157.859 29.7266 157.031 30.0078 156.211C31.3125 152.406 32.6328 148.602 33.9297 144.797C34.3594 143.531 34.7891 142.258 35.1094 140.969C35.4922 139.445 35.4062 137.875 35.3828 136.305C37.0547 139.523 37.6406 142.937 37.1484 146.531C36.3359 152.508 32.5625 156.758 29.1562 158.766Z" fill="#DEDEDE"/>
</g>
<defs>
<clipPath id="clip0_1_48">
<rect width="40" height="40" fill="white" transform="translate(146 67)"/>
</clipPath>
<clipPath id="clip1_1_48">
<rect width="40" height="40" fill="white" transform="translate(206 121)"/>
</clipPath>
<clipPath id="clip2_1_48">
<rect width="40" height="40" fill="white" transform="translate(166 193)"/>
</clipPath>
<clipPath id="clip3_1_48">
<rect width="40" height="40" fill="white" transform="translate(0 124)"/>
</clipPath>
</defs>
</svg>
