<svg width="31" height="35" viewBox="0 0 31 35" fill="none" xmlns="http://www.w3.org/2000/svg">
<g clip-path="url(#clip0_1_24)">
<path d="M15.6782 9.74751C11.4736 9.74751 8.08209 13.139 8.08209 17.3437C8.08209 21.5483 11.4736 24.9398 15.6782 24.9398C19.8829 24.9398 23.2744 21.5483 23.2744 17.3437C23.2744 13.139 19.8829 9.74751 15.6782 9.74751ZM15.6782 22.2822C12.9611 22.2822 10.7398 20.0674 10.7398 17.3437C10.7398 14.6199 12.9545 12.4052 15.6782 12.4052C18.402 12.4052 20.6167 14.6199 20.6167 17.3437C20.6167 20.0674 18.3954 22.2822 15.6782 22.2822ZM25.3569 9.43679C25.3569 10.4218 24.5636 11.2086 23.5851 11.2086C22.6001 11.2086 21.8133 10.4152 21.8133 9.43679C21.8133 8.45835 22.6067 7.66502 23.5851 7.66502C24.5636 7.66502 25.3569 8.45835 25.3569 9.43679ZM30.3879 11.235C30.2755 8.86163 29.7334 6.7593 27.9947 5.02719C26.2626 3.29508 24.1603 2.75297 21.7869 2.63397C19.3408 2.49514 12.0091 2.49514 9.56298 2.63397C7.19621 2.74636 5.09388 3.28847 3.35516 5.02058C1.61644 6.75269 1.08094 8.85502 0.961943 11.2284C0.82311 13.6745 0.82311 21.0062 0.961943 23.4523C1.07433 25.8257 1.61644 27.928 3.35516 29.6601C5.09388 31.3923 7.1896 31.9344 9.56298 32.0534C12.0091 32.1922 19.3408 32.1922 21.7869 32.0534C24.1603 31.941 26.2626 31.3989 27.9947 29.6601C29.7268 27.928 30.2689 25.8257 30.3879 23.4523C30.5268 21.0062 30.5268 13.6811 30.3879 11.235ZM27.2278 26.0769C26.7122 27.3727 25.7139 28.371 24.4115 28.8933C22.4612 29.6668 17.8335 29.4883 15.6782 29.4883C13.523 29.4883 8.88865 29.6601 6.94499 28.8933C5.64921 28.3776 4.65094 27.3793 4.12866 26.0769C3.35516 24.1267 3.53366 19.4989 3.53366 17.3437C3.53366 15.1884 3.36177 10.5541 4.12866 8.6104C4.64432 7.31463 5.6426 6.31635 6.94499 5.79408C8.89526 5.02058 13.523 5.19908 15.6782 5.19908C17.8335 5.19908 22.4678 5.02719 24.4115 5.79408C25.7073 6.30974 26.7056 7.30802 27.2278 8.6104C28.0013 10.5607 27.8228 15.1884 27.8228 17.3437C27.8228 19.4989 28.0013 24.1333 27.2278 26.0769Z" fill="#DEDEDE"/>
</g>
<defs>
<clipPath id="clip0_1_24">
<rect width="29.6177" height="33.8488" fill="white" transform="translate(0.863098 0.425903)"/>
</clipPath>
</defs>
</svg>
