<svg width="33" height="33" viewBox="0 0 33 33" fill="none" xmlns="http://www.w3.org/2000/svg">
<path d="M30.548 0H2.3425C1.05009 0 0 1.06477 0 2.37187V30.526C0 31.8331 1.05009 32.8978 2.3425 32.8978H30.548C31.8404 32.8978 32.8978 31.8331 32.8978 30.526V2.37187C32.8978 1.06477 31.8404 0 30.548 0ZM9.94278 28.1981H5.06685V12.4982H9.95012V28.1981H9.94278ZM7.50482 10.354C5.9407 10.354 4.67766 9.08362 4.67766 7.52685C4.67766 5.97007 5.9407 4.69969 7.50482 4.69969C9.06159 4.69969 10.332 5.97007 10.332 7.52685C10.332 9.09096 9.06893 10.354 7.50482 10.354ZM28.2202 28.1981H23.3442V20.5611C23.3442 18.74 23.3075 16.3975 20.8108 16.3975C18.27 16.3975 17.8808 18.3802 17.8808 20.429V28.1981H13.0049V12.4982H17.6826V14.6425H17.7487C18.4022 13.4088 19.9957 12.109 22.3676 12.109C27.3023 12.109 28.2202 15.3621 28.2202 19.5918V28.1981Z" fill="#DEDEDE"/>
</svg>
