<svg width="126" height="44" viewBox="0 0 126 44" fill="none" xmlns="http://www.w3.org/2000/svg">
<path d="M28.2808 30.048L29.4808 36H8.55281H2.60081V0.815998H8.55281V30.048H28.2808ZM54.8792 0.815998V24.432C54.8792 25.968 54.6072 27.44 54.0632 28.848C53.5192 30.224 52.7352 31.456 51.7112 32.544C50.7192 33.6 49.5032 34.448 48.0632 35.088C46.6552 35.696 45.0872 36 43.3592 36C42.0152 36 40.7672 35.824 39.6152 35.472C38.4952 35.088 37.4712 34.576 36.5432 33.936C35.6152 33.264 34.7992 32.496 34.0952 31.632C33.4232 30.736 32.8952 29.76 32.5112 28.704L37.3592 26.064C37.5832 26.8 37.9192 27.456 38.3672 28.032C38.8472 28.576 39.3592 29.04 39.9032 29.424C40.4792 29.808 41.0712 30.096 41.6792 30.288C42.2872 30.48 42.8472 30.576 43.3592 30.576C44.0632 30.576 44.7672 30.448 45.4712 30.192C46.2072 29.904 46.8632 29.504 47.4392 28.992C48.0472 28.448 48.5272 27.792 48.8792 27.024C49.2632 26.256 49.4552 25.392 49.4552 24.432V0.815998H54.8792ZM93.2529 18.432C93.2529 20.864 92.7889 23.152 91.8609 25.296C90.9329 27.408 89.6689 29.264 88.0689 30.864C86.5009 32.432 84.6449 33.68 82.5009 34.608C80.3889 35.536 78.1169 36 75.6849 36C73.2529 36 70.9649 35.536 68.8209 34.608C66.7089 33.68 64.8529 32.432 63.2529 30.864C61.6529 29.264 60.3889 27.408 59.4609 25.296C58.5329 23.152 58.0689 20.864 58.0689 18.432C58.0689 16 58.5329 13.712 59.4609 11.568C60.3889 9.424 61.6529 7.568 63.2529 6C64.8529 4.4 66.7089 3.136 68.8209 2.208C70.9649 1.28 73.2529 0.815998 75.6849 0.815998C78.3409 0.815998 80.8049 1.36 83.0769 2.448C85.3489 3.536 87.3009 4.992 88.9329 6.816L84.6129 11.136C83.5569 9.824 82.2609 8.784 80.7249 8.016C79.1889 7.248 77.5089 6.864 75.6849 6.864C74.0849 6.864 72.5809 7.168 71.1729 7.776C69.7649 8.384 68.5329 9.216 67.4769 10.272C66.4529 11.296 65.6369 12.512 65.0289 13.92C64.4209 15.328 64.1169 16.832 64.1169 18.432C64.1169 20.032 64.4209 21.536 65.0289 22.944C65.6369 24.352 66.4529 25.584 67.4769 26.64C68.5329 27.664 69.7649 28.48 71.1729 29.088C72.5809 29.696 74.0849 30 75.6849 30C77.9249 30 79.9569 29.424 81.7809 28.272C83.6049 27.12 84.9969 25.6 85.9569 23.712H77.7969L76.8849 18.432H85.9569H87.2529H93.2529ZM110.485 0.815998C112.277 0.815998 113.957 1.168 115.525 1.872C117.125 2.544 118.517 3.472 119.701 4.656C120.885 5.84 121.813 7.232 122.485 8.832C123.189 10.4 123.541 12.096 123.541 13.92C123.541 15.712 123.189 17.408 122.485 19.008C121.813 20.576 120.885 21.952 119.701 23.136C118.517 24.32 117.125 25.264 115.525 25.968C113.957 26.64 112.277 26.976 110.485 26.976H104.533L103.381 21.072H110.485C111.477 21.072 112.405 20.896 113.269 20.544C114.133 20.16 114.885 19.648 115.525 19.008C116.165 18.336 116.677 17.568 117.061 16.704C117.445 15.84 117.637 14.912 117.637 13.92C117.637 12.928 117.445 12 117.061 11.136C116.677 10.272 116.165 9.52 115.525 8.88C114.885 8.24 114.133 7.728 113.269 7.344C112.405 6.96 111.477 6.768 110.485 6.768H102.277V36H96.3733V6.768V3.792V0.815998H110.485Z" fill="white"/>
</svg>
