<svg width="35" height="34" viewBox="0 0 35 34" fill="none" xmlns="http://www.w3.org/2000/svg">
<g clip-path="url(#clip0_1_22)">
<path d="M31.1026 10.1267C31.1241 10.4273 31.1241 10.7281 31.1241 11.0288C31.1241 20.1997 24.1439 30.7667 11.3861 30.7667C7.45571 30.7667 3.80453 29.6284 0.733215 27.6525C1.29165 27.7169 1.82854 27.7384 2.40847 27.7384C5.65154 27.7384 8.63698 26.6431 11.021 24.7745C7.97118 24.71 5.41533 22.7126 4.53473 19.9635C4.96432 20.0279 5.39384 20.0708 5.84492 20.0708C6.46775 20.0708 7.09065 19.9849 7.67051 19.8346C4.49182 19.1902 2.10773 16.3982 2.10773 13.0262V12.9403C3.03123 13.4558 4.10521 13.7779 5.24344 13.8208C3.37488 12.5751 2.1507 10.4488 2.1507 8.04332C2.1507 6.75469 2.49428 5.57341 3.09569 4.54248C6.51066 8.7521 11.6438 11.5012 17.3998 11.8019C17.2924 11.2865 17.228 10.7496 17.228 10.2126C17.228 6.38955 20.3208 3.27533 24.1653 3.27533C26.1627 3.27533 27.9668 4.11296 29.234 5.46605C30.8018 5.16538 32.3053 4.58545 33.6369 3.7908C33.1214 5.40166 32.0261 6.75475 30.5871 7.6138C31.9832 7.46353 33.3363 7.07684 34.5819 6.53996C33.6371 7.91447 32.4557 9.13865 31.1026 10.1267Z" fill="#DEDEDE"/>
</g>
<defs>
<clipPath id="clip0_1_22">
<rect width="33.8488" height="33.8488" fill="white" transform="translate(0.733063 0.0966034)"/>
</clipPath>
</defs>
</svg>
