<svg width="31" height="35" viewBox="0 0 31 35" fill="none" xmlns="http://www.w3.org/2000/svg">
<g clip-path="url(#clip0_1_26)">
<path d="M25.9717 6.84525C23.2016 4.06859 19.5126 2.54143 15.5923 2.54143C7.50028 2.54143 0.915619 9.12608 0.915619 17.2181C0.915619 19.803 1.58995 22.3285 2.87251 24.5564L0.790009 32.1592L8.57127 30.1163C10.7133 31.2865 13.1263 31.9013 15.5857 31.9013H15.5923C23.6776 31.9013 30.4077 25.3167 30.4077 17.2247C30.4077 13.3043 28.7417 9.62192 25.9717 6.84525ZM15.5923 29.4288C13.3974 29.4288 11.2488 28.8404 9.37783 27.7297L8.93488 27.4653L4.32034 28.6751L5.55 24.1729L5.25911 23.7102C4.03606 21.7665 3.39478 19.5253 3.39478 17.2181C3.39478 10.4946 8.86877 5.02059 15.5989 5.02059C18.8581 5.02059 21.9191 6.28992 24.2197 8.5972C26.5204 10.9045 27.9352 13.9654 27.9286 17.2247C27.9286 23.9548 22.3158 29.4288 15.5923 29.4288ZM22.2827 20.2922C21.9191 20.1071 20.1143 19.2212 19.7771 19.1022C19.4399 18.9766 19.1953 18.9171 18.9507 19.2873C18.7061 19.6576 18.0053 20.4773 17.7871 20.7286C17.5756 20.9732 17.3574 21.0062 16.9938 20.8211C14.8386 19.7435 13.4238 18.8973 12.0024 16.4578C11.6256 15.8099 12.3793 15.8562 13.08 14.4546C13.199 14.21 13.1395 13.9985 13.047 13.8134C12.9544 13.6282 12.2206 11.8234 11.9165 11.0896C11.619 10.3756 11.3149 10.4747 11.0901 10.4615C10.8785 10.4483 10.6339 10.4483 10.3893 10.4483C10.1447 10.4483 9.74805 10.5409 9.41088 10.9045C9.07372 11.2747 8.12833 12.1606 8.12833 13.9654C8.12833 15.7702 9.44394 17.5156 9.62244 17.7602C9.80755 18.0048 12.2074 21.707 15.8898 23.3003C18.2169 24.3052 19.1292 24.3911 20.2928 24.2192C21.0001 24.1134 22.4612 23.3333 22.7653 22.4739C23.0694 21.6145 23.0694 20.8806 22.9769 20.7286C22.8909 20.5633 22.6463 20.4707 22.2827 20.2922Z" fill="#DEDEDE"/>
</g>
<defs>
<clipPath id="clip0_1_26">
<rect width="29.6177" height="33.8488" fill="white" transform="translate(0.790039 0.425903)"/>
</clipPath>
</defs>
</svg>
